<mxfile host="app.diagrams.net" modified="2023-08-24T18:48:12.792Z" agent="Mozilla/5.0 (X11; Linux x86_64) AppleWebKit/537.36 (KHTML, like Gecko) Chrome/116.0.0.0 Safari/537.36" etag="0e6Y5cGd2JV778zmhUxS" version="21.6.2" type="device" pages="3">
  <diagram name="Page-1" id="6EEpBAA_ziekVDtb_PAh">
    <mxGraphModel dx="808" dy="528" grid="1" gridSize="10" guides="1" tooltips="1" connect="1" arrows="1" fold="1" page="1" pageScale="1" pageWidth="850" pageHeight="1100" math="0" shadow="0">
      <root>
        <mxCell id="0" />
        <mxCell id="1" parent="0" />
        <mxCell id="xYE92URbad5Q_2ESYV_P-2" value="Chat" style="strokeWidth=1;shadow=0;dashed=0;align=center;html=1;shape=mxgraph.mockup.containers.window;align=left;verticalAlign=top;spacingLeft=8;strokeColor2=#008cff;strokeColor3=#c4c4c4;fontColor=#666666;mainText=;fontSize=17;labelBackgroundColor=none;whiteSpace=wrap;" vertex="1" parent="1">
          <mxGeometry x="140" y="50" width="550" height="380" as="geometry" />
        </mxCell>
        <mxCell id="xYE92URbad5Q_2ESYV_P-3" value="" style="strokeWidth=1;shadow=0;dashed=0;align=center;html=1;shape=mxgraph.mockup.forms.pwField;strokeColor=#999999;mainText=;align=left;fontColor=#666666;fontSize=17;spacingLeft=3;" vertex="1" parent="1">
          <mxGeometry x="180" y="370" width="430" height="30" as="geometry" />
        </mxCell>
        <mxCell id="xYE92URbad5Q_2ESYV_P-4" value="Enviar" style="html=1;shadow=0;dashed=0;shape=mxgraph.bootstrap.rrect;rSize=5;strokeColor=none;strokeWidth=1;fillColor=#343A40;fontColor=#ffffff;whiteSpace=wrap;align=center;verticalAlign=middle;spacingLeft=0;fontStyle=0;fontSize=16;spacing=5;" vertex="1" parent="1">
          <mxGeometry x="620" y="365" width="60" height="40" as="geometry" />
        </mxCell>
        <mxCell id="xYE92URbad5Q_2ESYV_P-5" value="" style="verticalLabelPosition=bottom;shadow=0;dashed=0;align=center;html=1;verticalAlign=top;strokeWidth=1;shape=mxgraph.mockup.containers.userMale;strokeColor=#666666;strokeColor2=#008cff;" vertex="1" parent="1">
          <mxGeometry x="180" y="100" width="40" height="50" as="geometry" />
        </mxCell>
        <mxCell id="xYE92URbad5Q_2ESYV_P-6" value="Hola, Como puedo ayudarte." style="strokeWidth=1;shadow=0;dashed=0;align=center;html=1;shape=mxgraph.mockup.forms.pwField;strokeColor=#999999;mainText=;align=left;fontColor=#666666;fontSize=17;spacingLeft=3;" vertex="1" parent="1">
          <mxGeometry x="230" y="100" width="370" height="50" as="geometry" />
        </mxCell>
        <mxCell id="xYE92URbad5Q_2ESYV_P-7" value="" style="dashed=0;outlineConnect=0;html=1;align=center;labelPosition=center;verticalLabelPosition=bottom;verticalAlign=top;shape=mxgraph.weblogos.messenger" vertex="1" parent="1">
          <mxGeometry x="620" y="180" width="40" height="50" as="geometry" />
        </mxCell>
        <mxCell id="xYE92URbad5Q_2ESYV_P-8" value="Quisiera saber los planes de internet." style="strokeWidth=1;shadow=0;dashed=0;align=center;html=1;shape=mxgraph.mockup.forms.pwField;strokeColor=#999999;mainText=;align=left;fontColor=#666666;fontSize=17;spacingLeft=3;" vertex="1" parent="1">
          <mxGeometry x="230" y="180" width="370" height="50" as="geometry" />
        </mxCell>
      </root>
    </mxGraphModel>
  </diagram>
  <diagram id="yDfoC-RtRqZ3JEIOBSSw" name="Page-2">
    <mxGraphModel dx="808" dy="1628" grid="1" gridSize="10" guides="1" tooltips="1" connect="1" arrows="1" fold="1" page="1" pageScale="1" pageWidth="850" pageHeight="1100" math="0" shadow="0">
      <root>
        <mxCell id="0" />
        <mxCell id="1" parent="0" />
        <mxCell id="B1a26VZU-elOV3LGPTzw-1" value="" style="strokeWidth=1;shadow=0;dashed=0;align=center;html=1;shape=mxgraph.mockup.forms.rrect;rSize=0;strokeColor=#999999;fillColor=#ffffff;" vertex="1" parent="1">
          <mxGeometry x="40" y="-80" width="510" height="500" as="geometry" />
        </mxCell>
        <mxCell id="B1a26VZU-elOV3LGPTzw-2" value="Login" style="strokeWidth=1;shadow=0;dashed=0;align=center;html=1;shape=mxgraph.mockup.forms.anchor;fontSize=12;fontColor=#666666;align=left;resizeWidth=1;spacingLeft=0;" vertex="1" parent="B1a26VZU-elOV3LGPTzw-1">
          <mxGeometry width="162.55803939861494" height="20" relative="1" as="geometry">
            <mxPoint x="10" y="10" as="offset" />
          </mxGeometry>
        </mxCell>
        <mxCell id="B1a26VZU-elOV3LGPTzw-3" value="" style="shape=line;strokeColor=#ddeeff;strokeWidth=2;html=1;resizeWidth=1;" vertex="1" parent="B1a26VZU-elOV3LGPTzw-1">
          <mxGeometry width="468.8709677419355" height="10" relative="1" as="geometry">
            <mxPoint x="10" y="30" as="offset" />
          </mxGeometry>
        </mxCell>
        <mxCell id="B1a26VZU-elOV3LGPTzw-4" value="Usuario:" style="strokeWidth=1;shadow=0;dashed=0;align=center;html=1;shape=mxgraph.mockup.forms.anchor;fontSize=12;fontColor=#666666;align=left;resizeWidth=1;spacingLeft=0;" vertex="1" parent="B1a26VZU-elOV3LGPTzw-1">
          <mxGeometry width="162.55803939861494" height="20" relative="1" as="geometry">
            <mxPoint x="160" y="170" as="offset" />
          </mxGeometry>
        </mxCell>
        <mxCell id="B1a26VZU-elOV3LGPTzw-5" value="johndoe" style="strokeWidth=1;shadow=0;dashed=0;align=center;html=1;shape=mxgraph.mockup.forms.rrect;rSize=0;strokeColor=#999999;fontColor=#666666;align=left;spacingLeft=5;resizeWidth=1;" vertex="1" parent="B1a26VZU-elOV3LGPTzw-1">
          <mxGeometry width="243.8370590979224" height="25" relative="1" as="geometry">
            <mxPoint x="160" y="210" as="offset" />
          </mxGeometry>
        </mxCell>
        <mxCell id="B1a26VZU-elOV3LGPTzw-6" value="Contrasena:" style="strokeWidth=1;shadow=0;dashed=0;align=center;html=1;shape=mxgraph.mockup.forms.anchor;fontSize=12;fontColor=#666666;align=left;resizeWidth=1;spacingLeft=0;" vertex="1" parent="B1a26VZU-elOV3LGPTzw-1">
          <mxGeometry width="162.55803939861494" height="20" relative="1" as="geometry">
            <mxPoint x="160" y="250" as="offset" />
          </mxGeometry>
        </mxCell>
        <mxCell id="B1a26VZU-elOV3LGPTzw-7" value="********" style="strokeWidth=1;shadow=0;dashed=0;align=center;html=1;shape=mxgraph.mockup.forms.rrect;rSize=0;strokeColor=#999999;fontColor=#666666;align=left;spacingLeft=5;resizeWidth=1;" vertex="1" parent="B1a26VZU-elOV3LGPTzw-1">
          <mxGeometry width="243.8370590979224" height="25" relative="1" as="geometry">
            <mxPoint x="160" y="290" as="offset" />
          </mxGeometry>
        </mxCell>
        <mxCell id="B1a26VZU-elOV3LGPTzw-8" value="Aceptar" style="strokeWidth=1;shadow=0;dashed=0;align=center;html=1;shape=mxgraph.mockup.forms.rrect;rSize=5;strokeColor=#0e8088;fillColor=#b0e3e6;fontSize=16;fontStyle=1;" vertex="1" parent="B1a26VZU-elOV3LGPTzw-1">
          <mxGeometry y="1" width="80" height="30" relative="1" as="geometry">
            <mxPoint x="320" y="-160" as="offset" />
          </mxGeometry>
        </mxCell>
        <mxCell id="B1a26VZU-elOV3LGPTzw-9" value="Forgot Password?" style="strokeWidth=1;shadow=0;dashed=0;align=center;html=1;shape=mxgraph.mockup.forms.anchor;fontSize=12;fontColor=#9999ff;align=left;spacingLeft=0;fontStyle=4;resizeWidth=1;" vertex="1" parent="B1a26VZU-elOV3LGPTzw-1">
          <mxGeometry y="1" width="243.8370590979224" height="20" relative="1" as="geometry">
            <mxPoint x="320" y="-120" as="offset" />
          </mxGeometry>
        </mxCell>
        <mxCell id="B1a26VZU-elOV3LGPTzw-10" value="" style="shape=line;strokeColor=#ddeeff;strokeWidth=2;html=1;resizeWidth=1;" vertex="1" parent="B1a26VZU-elOV3LGPTzw-1">
          <mxGeometry y="1" width="477.0967741935484" height="10" relative="1" as="geometry">
            <mxPoint x="10" y="-90" as="offset" />
          </mxGeometry>
        </mxCell>
        <mxCell id="B1a26VZU-elOV3LGPTzw-11" value="Nuevo usuario" style="strokeWidth=1;shadow=0;dashed=0;align=center;html=1;shape=mxgraph.mockup.forms.anchor;fontSize=12;fontColor=#666666;align=left;spacingLeft=0;resizeWidth=1;" vertex="1" parent="B1a26VZU-elOV3LGPTzw-1">
          <mxGeometry y="1" width="243.8370590979224" height="20" relative="1" as="geometry">
            <mxPoint x="20" y="-70" as="offset" />
          </mxGeometry>
        </mxCell>
        <mxCell id="B1a26VZU-elOV3LGPTzw-12" value="Nueva cuenta" style="strokeWidth=1;shadow=0;dashed=0;align=center;html=1;shape=mxgraph.mockup.forms.rrect;rSize=5;strokeColor=#0e8088;fillColor=#b0e3e6;fontSize=16;fontStyle=1;" vertex="1" parent="B1a26VZU-elOV3LGPTzw-1">
          <mxGeometry y="1" width="120" height="30" relative="1" as="geometry">
            <mxPoint x="20" y="-50" as="offset" />
          </mxGeometry>
        </mxCell>
        <mxCell id="B1a26VZU-elOV3LGPTzw-14" value="" style="dashed=0;outlineConnect=0;html=1;align=center;labelPosition=center;verticalLabelPosition=bottom;verticalAlign=top;shape=mxgraph.webicons.meetup;fillColor=#d5e8d4;strokeColor=#82b366;" vertex="1" parent="B1a26VZU-elOV3LGPTzw-1">
          <mxGeometry x="30" y="70" width="100" height="290" as="geometry" />
        </mxCell>
        <mxCell id="B1a26VZU-elOV3LGPTzw-15" value="" style="dashed=0;outlineConnect=0;html=1;align=center;labelPosition=center;verticalLabelPosition=bottom;verticalAlign=top;shape=mxgraph.webicons.netlog;fillColor=#008a00;strokeColor=#005700;fontColor=#ffffff;" vertex="1" parent="B1a26VZU-elOV3LGPTzw-1">
          <mxGeometry x="230" y="60" width="102.4" height="102.4" as="geometry" />
        </mxCell>
      </root>
    </mxGraphModel>
  </diagram>
  <diagram id="U4NBv-kJNOBqVVcbyehC" name="Page-3">
    <mxGraphModel dx="808" dy="528" grid="1" gridSize="10" guides="1" tooltips="1" connect="1" arrows="1" fold="1" page="1" pageScale="1" pageWidth="850" pageHeight="1100" math="0" shadow="0">
      <root>
        <mxCell id="0" />
        <mxCell id="1" parent="0" />
        <mxCell id="8vsZJs9pEtPjcIF9clKC-1" value="" style="strokeWidth=1;shadow=0;dashed=0;align=center;html=1;shape=mxgraph.mockup.containers.browserWindow;rSize=0;strokeColor=#666666;strokeColor2=#008cff;strokeColor3=#c4c4c4;mainText=,;recursiveResize=0;" vertex="1" parent="1">
          <mxGeometry x="40" y="40" width="560" height="380" as="geometry" />
        </mxCell>
        <mxCell id="8vsZJs9pEtPjcIF9clKC-2" value="Taller de grado" style="strokeWidth=1;shadow=0;dashed=0;align=center;html=1;shape=mxgraph.mockup.containers.anchor;fontSize=17;fontColor=#666666;align=left;whiteSpace=wrap;" vertex="1" parent="8vsZJs9pEtPjcIF9clKC-1">
          <mxGeometry x="60" y="12" width="130" height="26" as="geometry" />
        </mxCell>
        <mxCell id="8vsZJs9pEtPjcIF9clKC-3" value="http://www.localhost/tecnico" style="strokeWidth=1;shadow=0;dashed=0;align=center;html=1;shape=mxgraph.mockup.containers.anchor;rSize=0;fontSize=17;fontColor=#666666;align=left;" vertex="1" parent="8vsZJs9pEtPjcIF9clKC-1">
          <mxGeometry x="130" y="60" width="250" height="26" as="geometry" />
        </mxCell>
        <mxCell id="8vsZJs9pEtPjcIF9clKC-4" value="" style="strokeWidth=1;shadow=0;dashed=0;align=center;html=1;shape=mxgraph.mockup.forms.pwField;strokeColor=#999999;mainText=;align=left;fontColor=#666666;fontSize=17;spacingLeft=3;" vertex="1" parent="8vsZJs9pEtPjcIF9clKC-1">
          <mxGeometry x="360" y="150" width="150" height="30" as="geometry" />
        </mxCell>
        <mxCell id="8vsZJs9pEtPjcIF9clKC-5" value="" style="strokeWidth=1;shadow=0;dashed=0;align=center;html=1;shape=mxgraph.mockup.forms.pwField;strokeColor=#999999;mainText=;align=left;fontColor=#666666;fontSize=17;spacingLeft=3;" vertex="1" parent="8vsZJs9pEtPjcIF9clKC-1">
          <mxGeometry x="360" y="205" width="150" height="30" as="geometry" />
        </mxCell>
        <mxCell id="8vsZJs9pEtPjcIF9clKC-7" value="Nombre:" style="text;html=1;strokeColor=none;fillColor=none;align=center;verticalAlign=middle;whiteSpace=wrap;rounded=0;" vertex="1" parent="8vsZJs9pEtPjcIF9clKC-1">
          <mxGeometry x="260" y="150" width="60" height="30" as="geometry" />
        </mxCell>
        <mxCell id="8vsZJs9pEtPjcIF9clKC-8" value="Cargo:" style="text;html=1;strokeColor=none;fillColor=none;align=center;verticalAlign=middle;whiteSpace=wrap;rounded=0;" vertex="1" parent="8vsZJs9pEtPjcIF9clKC-1">
          <mxGeometry x="260" y="205" width="60" height="30" as="geometry" />
        </mxCell>
        <mxCell id="8vsZJs9pEtPjcIF9clKC-9" value="" style="strokeWidth=1;shadow=0;dashed=0;align=center;html=1;shape=mxgraph.mockup.rrect;rSize=10;strokeColor=#0e8088;fillColor=#b0e3e6;" vertex="1" parent="8vsZJs9pEtPjcIF9clKC-1">
          <mxGeometry x="30" y="130" width="120" height="200" as="geometry" />
        </mxCell>
        <mxCell id="8vsZJs9pEtPjcIF9clKC-10" value="Reportes" style="strokeColor=inherit;fillColor=inherit;gradientColor=inherit;strokeWidth=1;shadow=0;dashed=0;align=center;html=1;shape=mxgraph.mockup.rrect;rSize=0;fontSize=17;fontColor=#666666;fontStyle=1;resizeWidth=1;whiteSpace=wrap;" vertex="1" parent="8vsZJs9pEtPjcIF9clKC-9">
          <mxGeometry width="120" height="50" relative="1" as="geometry">
            <mxPoint y="50" as="offset" />
          </mxGeometry>
        </mxCell>
        <mxCell id="8vsZJs9pEtPjcIF9clKC-11" value="Ordenes" style="strokeColor=inherit;fillColor=inherit;gradientColor=inherit;strokeWidth=1;shadow=0;dashed=0;align=center;html=1;shape=mxgraph.mockup.rrect;rSize=0;fontSize=17;fontColor=#666666;fontStyle=1;resizeWidth=1;whiteSpace=wrap;" vertex="1" parent="8vsZJs9pEtPjcIF9clKC-9">
          <mxGeometry width="120" height="50" relative="1" as="geometry">
            <mxPoint y="100" as="offset" />
          </mxGeometry>
        </mxCell>
        <mxCell id="8vsZJs9pEtPjcIF9clKC-12" value="Planes" style="strokeColor=inherit;fillColor=inherit;gradientColor=inherit;strokeWidth=1;shadow=0;dashed=0;align=center;html=1;shape=mxgraph.mockup.bottomButton;rSize=10;fontSize=17;fontColor=#666666;fontStyle=1;resizeWidth=1;whiteSpace=wrap;" vertex="1" parent="8vsZJs9pEtPjcIF9clKC-9">
          <mxGeometry y="1" width="120" height="50" relative="1" as="geometry">
            <mxPoint y="-50" as="offset" />
          </mxGeometry>
        </mxCell>
        <mxCell id="8vsZJs9pEtPjcIF9clKC-13" value="Tecnico" style="strokeWidth=1;shadow=0;dashed=0;align=center;html=1;shape=mxgraph.mockup.topButton;rSize=10;fontSize=17;fontColor=#ffffff;fontStyle=1;fillColor=#008cff;strokeColor=#008cff;resizeWidth=1;whiteSpace=wrap;" vertex="1" parent="8vsZJs9pEtPjcIF9clKC-9">
          <mxGeometry width="120" height="50" relative="1" as="geometry" />
        </mxCell>
        <mxCell id="8vsZJs9pEtPjcIF9clKC-17" value="Guardar" style="strokeWidth=1;shadow=0;dashed=0;align=center;html=1;shape=mxgraph.mockup.buttons.button;strokeColor=#2D7600;fontColor=#ffffff;mainText=;buttonStyle=round;fontSize=17;fontStyle=1;fillColor=#60a917;whiteSpace=wrap;" vertex="1" parent="8vsZJs9pEtPjcIF9clKC-1">
          <mxGeometry x="420" y="280" width="90" height="50" as="geometry" />
        </mxCell>
      </root>
    </mxGraphModel>
  </diagram>
</mxfile>
